<svg width="48" height="48" viewBox="0 0 48 48" fill="none" xmlns="http://www.w3.org/2000/svg">
<path d="M33.3389 4.00098C40.1409 4.00098 43.9809 7.85898 44.0009 14.661V33.341C44.0009 40.141 40.1409 44.001 33.3389 44.001H14.6609C7.85885 44.001 4.00085 40.141 4.00085 33.341V14.661C4.00085 7.85898 7.85885 4.00098 14.6609 4.00098H33.3389ZM25.0009 12.261C24.4389 11.921 23.7589 11.921 23.2209 12.261C22.6789 12.599 22.3809 13.221 22.4389 13.841V34.221C22.5409 35.081 23.2589 35.721 24.0989 35.721C24.9609 35.721 25.6789 35.081 25.7589 34.221V13.841C25.8389 13.221 25.5409 12.599 25.0009 12.261ZM15.6609 18.821C15.1209 18.481 14.4389 18.481 13.9009 18.821C13.3589 19.161 13.0609 19.779 13.1209 20.401V34.221C13.1989 35.081 13.9189 35.721 14.7789 35.721C15.6409 35.721 16.3589 35.081 16.4389 34.221V20.401C16.5009 19.779 16.1989 19.161 15.6609 18.821ZM34.1789 26.081C33.6409 25.741 32.9609 25.741 32.4009 26.081C31.8589 26.421 31.5609 27.019 31.6409 27.661V34.221C31.7209 35.081 32.4389 35.721 33.3009 35.721C34.1409 35.721 34.8589 35.081 34.9609 34.221V27.661C35.0189 27.019 34.7209 26.421 34.1789 26.081Z" fill="#F0899C"/>
</svg>
