<svg width="48" height="48" viewBox="0 0 48 48" fill="none" xmlns="http://www.w3.org/2000/svg">
<path d="M17.9121 9.919C18.8924 9.73552 19.8752 10.225 20.3029 11.1096C20.4094 11.2701 20.4946 11.4433 20.5565 11.6249C20.8282 15.8186 21.118 19.9412 21.3896 24.0638C21.3835 24.4923 21.4508 24.9188 21.5889 25.3254C21.9139 26.1255 22.7227 26.6331 23.5993 26.5871L36.9116 25.7342L37.0022 25.7697L37.2452 25.7872C37.7264 25.8488 38.1751 26.0684 38.5157 26.4141C38.9131 26.8173 39.131 27.359 39.1216 27.9198C38.5967 35.564 32.9923 41.951 25.3655 43.5965C17.7388 45.2419 9.92035 41.7509 6.17556 35.0278C5.07443 33.0914 4.37861 30.9588 4.12891 28.755C4.03206 28.102 3.98966 27.4423 4.00212 26.7826C4.02736 18.6541 9.81455 11.6381 17.9121 9.919ZM25.8271 4.00165C34.9687 4.27531 42.6087 10.9116 43.9934 19.7813C44.0022 19.8342 44.0022 19.8882 43.9934 19.9412L43.9909 20.1916C43.9609 20.5226 43.825 20.8383 43.5993 21.0917C43.3171 21.4085 42.918 21.602 42.4901 21.6293L27.1311 22.6422L26.8781 22.6472C26.4589 22.6268 26.0569 22.4637 25.7437 22.1818C25.3679 21.8436 25.1549 21.3656 25.1569 20.8652L24.1245 5.77863V5.52986C24.1433 5.10555 24.3334 4.70601 24.6528 4.41933C24.9721 4.13264 25.3946 3.98237 25.8271 4.00165Z" fill="#F0899C"/>
</svg>
